<svg xmlns="http://www.w3.org/2000/svg" width="250" height="250" fill="none" viewBox="0 0 250 250">
<!-- SVG created with Arrow, by QuiverAI (https://quiver.ai) -->
  <path d="m66.88 225.8c9.93 5.32 20.06 9.86 37.4 9.86 13.64 0 23.33-0.32 44.63-6.31l-2.59-26.2-2.4-10.9 0.19-10.31-1.87-7.5-12.86-13.24-0.57-1.87 0.66-6.24 3.81-3.71 4.38-1.13 11.15 1.6 9.91 0.19 5.59-3.8 4.91-7.4 1.41-7.69 3.61-1.96 0.47-2.68-2.3-4.72 3.9-7.79 5.59-13.81 1.03-10-1.69-9.9-4.37-14.59-1.6-5.48-10.96-15.57-7.12-3.61-10.4-4.1-0.57-3.05-14.5-3.04-15.58-2.49-12.23-4-2.3 1.32-2.49 5.17-1.5 3.99-8.45 20.9-6.06 11.49-10.4 22.4-0.48 4.27 6.53 0.48 14.69-1.51 3.33 9.24 5.49 9.52-3.9 5.86-1.69 8.35 0.94 10.5v7.5l-4.46 5.92-7.41 12.76-3.61 11.83-5.39 8.34-5.58 31.4-4.29 11.71z" fill="url(#paint0_linear_206_2008)"/>
  <path d="m143 175.2-3.33-5.06-10.57-10.33-3.04-3.99-1.97-7.84-6.62-3.24-3.61 2.06-3.23-7.41-4.37-0.28-2.3 6.34-6.8 4.6-6.79 9.15-6.63 15.62-7.41 9.33-5.1 42.7c1.9 1 3.85 1.9 5.89 2.7l3.57 1.3 1.93 0.64 2.01 0.61 6.26 1.66 6.93 1.21 3.3 0.35 9.51 0.35 5.05-0.14 7.44-0.66 6.55-0.74 4.95-1.22 14.11-4.18-2.4-25.57-2.86-12.95 0.47-8.54-0.94-6.47z" fill="url(#paint1_linear_206_2008)"/>
  <path d="m142 174c-3.05-4.02-12.77-10.89-14.97-11.92-3.81-1.77-8.87-4.08-13.52-2.95s-11.77 10.09-13.46 18.44-5.87 17.31-5.12 28c0.53 7.81 3.17 16.21 4.33 19.82l1.41-10.23 2.4-22.97 5.49-14.62 8.45-7.59 5.94-1.87 8.81 1.87 7.94 7.59 1.45 10.6-1.45 16.61-7.32 29.28 3.52-1.03 8.25-24.05-0.19-16.79 0.19-10.31-2.15-7.88z" fill="url(#paint2_linear_206_2008)"/>
  <path d="m139.5 172.1c-2.66-3.19-10.66-7.21-14.56-8.16-4.85-1.2-10.19 1.23-14 6.19s-8.83 12.85-9.99 20.07c-0.94 6.22-0.81 18.84-0.67 24.74l1.93-12.76 2.76-15.93 6.34-11.44 6.84-6.64 6.79-1.51 8.46 2.53 6.29 5.62 2.4 7.88-0.48 5.26 1.03-2.77-0.18-7.55-2.96-5.53z" fill="url(#paint3_linear_206_2008)"/>
  <path d="m93.16 159.2 4.65-2.68 8.44-0.47 6.53-0.95 6.05 0.66 7.88 3.25 8.36 7.75-2.96-1.6-8.45-4.87-8.95-1.09-7.42 1.13-9.01-1.32-5.12 0.19z" fill="url(#paint4_linear_206_2008)"/>
  <path d="m95.93 154 4.27-2.86 7.42-0.28 5.39-0.76 3.71 0.95 7.22 3.62 4.87 4.29-4.37-2.87-6.13-3.7-5.58-0.48-6.72 1.04-7.36 0.38-2.72 0.67z" fill="url(#paint5_linear_206_2008)"/>
  <path d="m76.22 227.9 4.09-32.34 4.75-19.01 1.12-3.34-1.22 5.86-3.8 13.95-3.14 35.88-1.8-1z" fill="#2E2D2C"/>
  <path d="m79.74 229.7 2.49-20.62 1.22-12.61 2.16-11.45 2.16-11.12 4.65-13.88-0.48-2.59 5.96-9.43 2.07-2.77 1.87-2.4 4.37-7.03 0.56-9.89-3.52-15.02-3.23 5.87-2.96 7.12 1.03 12.02-0.75 7.97-5.29 8.06-6.63 11.14-3.33 11.3 3.14-2.34 2.25-4.02-2.29 6.73-4.18 6.94-3.52 11.13-2.4 17.11-0.94 16.96 2.54 1.71 3.05 1.11z" fill="url(#paint6_linear_206_2008)"/>
  <path d="m181.9 85.03-2.67-11.02-2.67-3.9-0.85-7.79-11.4-17.7-6.15-3.04-11.94-4.67 0.19-3.05-15.16-3.42-16.24-2.2-11.1-3.91-1.69 0.85-3.1 5.64-11.45 27.09-9.56 18.25-5.88 13.44 0.1 4.37 6.43 0.38 14.5-1.51 2.86 7.79 6.15 10.3 2.49-2.3 0.66-11.35 5.2-5.37h6.35l2.15 3.81 13.97-5.93 22.04-5.86 13.88-1.22 8.64 0.56 4.73 2.68" fill="url(#paint7_linear_206_2008)"/>
  <path d="m119 95.62c9.05-3.99 30.7-11.69 41.65-12.35 7.32-1.04 15.14-1.26 21.71 1.76l-1.33-7.98-3.81-5.86-5.95 0.94-12.47-2.02-14.41 2.87-15.6 7.12-11.94 3.26-6.53 0.38-8.07 4.28-8.15 1.96 0.85 5.64 7.25 13.01 2.16-1.6 1.04-9.75 4.92-5.86 6.25-0.38 2.43 4.58z" fill="url(#paint8_linear_206_2008)"/>
  <path d="m142.2 104.2 15.68 4.87 2.76 4.77-3.52 4.18-5.39-0.87-4.65-4.96-4.88-7.99z" fill="#fff"/>
  <path d="m152.4 109.5 1.23 7.71 3.42 0.57 2.76-3.14-1.73-3.8-5.68-1.34z" fill="#342A2B"/>
  <path d="m142.2 104.2 15.68 4.87 1.04 1.9-12.55-3.6-4.17-3.17z" fill="#342A2B"/>
  <path d="m172.4 116.8 4.46-0.66-1.13 3.04-2.3 2.58-1.03-4.96z" fill="#342A2B"/>
  <path d="m143 120 5.82 3.88 1.22-2.86" stroke="#F7D2D2" stroke-linecap="round" stroke-width=".5"/>
  <path d="m161.6 135.8 5.1 2.58 2.49-0.66" stroke="#9A5858" stroke-linecap="round" stroke-width=".5"/>
  <path d="m175.4 105.3 4.28-3.14 1.92-0.05-0.47 1.96-2.77 1.68-2.96-0.45z" fill="url(#paint9_linear_206_2008)"/>
  <path d="m112.7 101.5 3.05-6.12-1.84-2.03-3.98 1.84-2.48 6.93 1.51 8.45 3.74 3.44 2.3-2.68-0.28-5.57-2.02-4.26z" fill="url(#paint10_linear_206_2008)"/>
  <path d="m142.7 95.34 5.2-3.24 5.37 0.28 12.34 4.9 2.2 1.61v3.71l-3.61-3.24-9.46-3.74-7.78-1.13-4.26 0.85z" fill="url(#paint11_linear_206_2008)"/>
  <path d="m106.4 28.24 12.76 4.67 13.97 0.28 6.79 4.09 10.4 5.77 9.85 2.77 9.46 9.89 3.99 8.07 1.32 7.41-3.05-4.08-9.66-11.03-14.41-5.67-15.77-5.25-12.75-1.93-11.26-7.12-1.64-7.87z" fill="url(#paint12_linear_206_2008)" opacity=".2"/>
  <path d="m122.3 47.03 6.93-0.75 11.35 5.86 4.78 2.77-9.09 11.13-2.11-2.96 7.23-8.07-8.17-4.23-10.92-3.75z" fill="url(#paint13_linear_206_2008)" opacity=".2"/>
  <path d="m86.27 65.85 8.65 1.26 5.1-2.2 19-16.75-1.97 5.76-12.96 13.09-9.86 8.6-2.96-3.48-5-6.28z" fill="url(#paint14_linear_206_2008)" opacity=".2"/>
  <path d="m133.3 186.2 3.9 11.03-1.41 9.8-3.66-3.93 1.17-16.9z" fill="url(#paint15_linear_206_2008)" opacity=".6"/>
  <path d="m115.7 192.2 2.77 1.61-0.85 17.2-3.51 24.5-2.99-0.12 4.58-43.19z" fill="url(#paint16_linear_206_2008)" opacity=".7"/>
  <path d="m86.08 214 2.96 0.09 0.85 2.96-1.74 3.99 0.94 7.9-3.01-1v-13.94z" fill="url(#paint17_linear_206_2008)" opacity=".4"/>
  <defs>
    <linearGradient id="paint0_linear_206_2008" x1="124.9" x2="124.9" y1="24.33" y2="235.6" gradientUnits="userSpaceOnUse">
      <stop stop-color="#F8D9D2" offset="0"/>
      <stop stop-color="#FBCFD1" offset=".5104"/>
      <stop stop-color="#D6A59E" offset=".8594"/>
      <stop stop-color="#F1CDC4" offset="1"/>
    </linearGradient>
    <linearGradient id="paint1_linear_206_2008" x1="108" x2="108" y1="139.1" y2="235.6" gradientUnits="userSpaceOnUse">
      <stop stop-color="#E8F0F4" offset="0"/>
      <stop stop-color="#D8D8D8" offset="1"/>
    </linearGradient>
    <linearGradient id="paint2_linear_206_2008" x1="119" x2="119" y1="158.8" y2="234.9" gradientUnits="userSpaceOnUse">
      <stop stop-color="#83A9C2" offset="0"/>
      <stop stop-color="#87B9D6" offset=".4948"/>
      <stop stop-color="#D8D8D8" offset="1"/>
    </linearGradient>
    <linearGradient id="paint3_linear_206_2008" x1="121.3" x2="121.3" y1="163.4" y2="214.9" gradientUnits="userSpaceOnUse">
      <stop stop-color="#83A9C2" offset="0"/>
      <stop stop-color="#D8D8D8" offset="1"/>
    </linearGradient>
    <linearGradient id="paint4_linear_206_2008" x1="114.1" x2="114.1" y1="155.1" y2="166.7" gradientUnits="userSpaceOnUse">
      <stop stop-color="#83A9C2" offset="0"/>
      <stop stop-color="#D8D8D8" offset="1"/>
    </linearGradient>
    <linearGradient id="paint5_linear_206_2008" x1="112.4" x2="112.4" y1="150.1" y2="159.2" gradientUnits="userSpaceOnUse">
      <stop stop-color="#F0F0F0" offset="0"/>
      <stop stop-color="#D8D8D8" offset="1"/>
    </linearGradient>
    <linearGradient id="paint6_linear_206_2008" x1="91.51" x2="91.51" y1="110.9" y2="229.7" gradientUnits="userSpaceOnUse">
      <stop stop-color="#2E2D2C" offset="0"/>
      <stop stop-color="#3A3938" offset="1"/>
    </linearGradient>
    <linearGradient id="paint7_linear_206_2008" x1="127.3" x2="127.3" y1="24.33" y2="110.9" gradientUnits="userSpaceOnUse">
      <stop stop-color="#393839" offset="0"/>
      <stop stop-color="#282728" offset="1"/>
    </linearGradient>
    <linearGradient id="paint8_linear_206_2008" x1="142.7" x2="145.8" y1="70.11" y2="97" gradientUnits="userSpaceOnUse">
      <stop stop-color="#312F30" offset="0"/>
      <stop stop-color="#3A3938" offset="1"/>
    </linearGradient>
    <linearGradient id="paint9_linear_206_2008" x1="178.5" x2="178.5" y1="101.8" y2="105.9" gradientUnits="userSpaceOnUse">
      <stop stop-color="#B88686" offset="0"/>
      <stop stop-color="#B88686" stop-opacity=".01" offset="1"/>
    </linearGradient>
    <linearGradient id="paint10_linear_206_2008" x1="111.7" x2="111.7" y1="93.31" y2="114" gradientUnits="userSpaceOnUse">
      <stop stop-color="#F0B7B0" offset="0"/>
      <stop stop-color="#F0B7B0" stop-opacity=".01" offset="1"/>
    </linearGradient>
    <linearGradient id="paint11_linear_206_2008" x1="155.3" x2="155.3" y1="92.1" y2="102.6" gradientUnits="userSpaceOnUse">
      <stop stop-color="#815858" offset="0"/>
      <stop stop-color="#815858" stop-opacity=".01" offset="1"/>
    </linearGradient>
    <linearGradient id="paint12_linear_206_2008" x1="140.5" x2="140.5" y1="28.24" y2="71.19" gradientUnits="userSpaceOnUse">
      <stop stop-color="#484748" offset="0"/>
      <stop stop-color="#484748" stop-opacity=".01" offset="1"/>
    </linearGradient>
    <linearGradient id="paint13_linear_206_2008" x1="133.8" x2="133.8" y1="46.19" y2="66.04" gradientUnits="userSpaceOnUse">
      <stop stop-color="#484748" offset="0"/>
      <stop stop-color="#484748" stop-opacity=".01" offset="1"/>
    </linearGradient>
    <linearGradient id="paint14_linear_206_2008" x1="102.6" x2="102.6" y1="48.16" y2="75.61" gradientUnits="userSpaceOnUse">
      <stop stop-color="#484748" offset="0"/>
      <stop stop-color="#484748" stop-opacity=".01" offset="1"/>
    </linearGradient>
    <linearGradient id="paint15_linear_206_2008" x1="134.6" x2="134.6" y1="186.2" y2="207" gradientUnits="userSpaceOnUse">
      <stop stop-color="#CDCDCD" offset="0"/>
      <stop stop-color="#CDCDCD" stop-opacity=".01" offset="1"/>
    </linearGradient>
    <linearGradient id="paint16_linear_206_2008" x1="114.8" x2="114.8" y1="192.2" y2="235.5" gradientUnits="userSpaceOnUse">
      <stop stop-color="#F1F1F1" offset="0"/>
      <stop stop-color="#F1F1F1" stop-opacity=".01" offset="1"/>
    </linearGradient>
    <linearGradient id="paint17_linear_206_2008" x1="87.93" x2="87.93" y1="214" y2="228.9" gradientUnits="userSpaceOnUse">
      <stop stop-color="#CDCDCD" offset="0"/>
      <stop stop-color="#CDCDCD" stop-opacity=".01" offset="1"/>
    </linearGradient>
  </defs>
</svg>