<svg xmlns="http://www.w3.org/2000/svg" viewBox="0 0 128 128" fill="none">
  <g transform="translate(10,4)">
    <path d="M28 22L66 12L86 32L76 60L34 64L20 44Z" fill="#2D2D31"/>
    <path d="M24 45L17 55L20 71L27 84L34 73L30 56Z" fill="#2B2B2F"/>

    <path d="M40 44C50 36 64 36 74 44L79 55L74 74L63 88L50 92L41 89L34 76L33 60Z" fill="#F2D7CF"/>
    <path d="M58 48C63 49 68 52 71 56L70 62L64 66L56 66L51 62L52 54Z" fill="#F8E8E3"/>
    <path d="M61 66L66 69L63 72L58 71Z" fill="#EABBB1"/>
    <path d="M51 77C57 80 66 79 71 75L70 79C65 84 56 85 49 81Z" fill="#C88E86"/>

    <path d="M36 66C40 59 46 56 52 56L57 59L57 67L52 73L44 75L37 73Z" fill="#2B2B30" fill-opacity=".42"/>
    <path d="M45 88L56 100L58 114L46 114L36 104L33 94Z" fill="#EDEFF3"/>
    <path d="M58 92L72 98L76 112L60 114L57 100Z" fill="#B8CFE3"/>
    <path d="M33 94L45 98L56 100L56 106L40 104L34 99Z" fill="#8DB2CF"/>

    <path d="M28 20L66 10L89 31L80 62L75 60L84 33L65 16L32 24Z" fill="#3A3A40" fill-opacity=".75"/>
    <path d="M39 43C44 37 50 34 58 33L69 35L75 39L70 41L61 40L51 42L43 46Z" fill="#26262A" fill-opacity=".65"/>
  </g>
</svg>
